<?xml version="1.0" encoding="UTF-8"?>
<svg width="399px" height="91px" viewBox="0 0 399 91" version="1.1" xmlns="http://www.w3.org/2000/svg" xmlns:xlink="http://www.w3.org/1999/xlink">
    <!-- Generator: Sketch 53.2 (72643) - https://sketchapp.com -->
    <title>XamarinLogo</title>
    <desc>Created with Sketch.</desc>
    <g id="Page-1" stroke="none" stroke-width="1" fill="none" fill-rule="evenodd">
        <g id="XamarinLogo" fill="#3498DB" fill-rule="nonzero">
            <path d="M159.830343,71.22472 L149.514207,51.430391 L138.962593,71.22472 L127.616332,71.22472 L143.703693,45.677943 L129.226018,20.2884425 L140.729307,20.2884425 L150.122673,39.5780614 L160.301425,20.2884425 L170.823261,20.2884425 L155.952956,45.520655 L171.05874,71.22472 L159.830343,71.22472 Z M196.615791,71.22472 L196.615791,65.680992 L196.458639,65.680992 C193.658046,70.0321 189.692824,72.207647 184.56272,72.207647 C180.610509,72.207647 177.495862,71.132993 175.218777,68.983648 C172.941692,66.808088 171.803087,63.898603 171.803087,60.255219 C171.803087,52.44418 176.187216,48.001346 184.955351,46.926642 L196.694242,45.314636 C196.694242,39.8364586 194.155404,37.0973823 189.077726,37.0973318 C184.235652,37.0973823 179.786084,38.5914216 175.729147,41.5795129 L175.729147,33.5587811 C177.247245,32.641416 179.419604,31.8157521 182.246347,31.0817767 C185.099365,30.3479023 187.690504,29.9809461 190.020015,29.9808956 C200.384699,29.9809461 205.566978,35.2232542 205.567103,45.70782 L205.567103,71.22472 L196.615666,71.22472 L196.615791,71.22472 Z M188.017697,52.784921 C185.321831,53.125688 183.424239,53.794089 182.324923,54.790098 C181.251757,55.75993 180.715236,57.267102 180.715236,59.311601 C180.715236,60.989131 181.330333,62.365255 182.560527,63.439921 C183.790595,64.48836 185.400282,65.012604 187.389463,65.012604 C190.085329,65.012604 192.310113,64.082081 194.063815,62.221073 C195.817391,60.360053 196.694242,58.040349 196.694242,55.261913 L196.694242,51.644718 L188.017697,52.784921 L188.017697,52.784921 Z M263.452278,71.22472 L263.452278,48.499326 C263.452152,44.75112 262.86333,41.9726964 261.685563,40.1640926 C260.53382,38.3293119 258.466064,37.4118963 255.482418,37.4118584 C253.100482,37.4118963 251.098289,38.5127773 249.475588,40.7145142 C247.852764,42.890112 247.041352,45.524367 247.041352,48.617292 L247.041352,71.22472 L237.9723,71.22472 L237.9723,47.712997 C237.972176,40.8456006 235.341747,37.4118963 230.080892,37.4118584 C227.620629,37.4118963 225.592161,38.4472531 223.995487,40.5179413 C222.425087,42.5886801 221.639951,45.288447 221.639951,48.617292 L221.639951,71.22472 L212.570775,71.22472 L212.570775,30.9638481 L221.639951,30.9638481 L221.639951,37.1759761 L221.796978,37.1759761 C224.702297,32.3793063 228.942412,29.9809461 234.517448,29.9808956 C237.187038,29.9809461 239.542699,30.6886563 241.584306,32.1040513 C243.651937,33.4932821 245.104597,35.4198271 245.94216,37.8836736 C249.004506,32.6152013 253.506376,29.9809461 259.447766,29.9808956 C268.189624,29.9809461 272.560617,35.4329471 272.560742,46.336911 L272.560742,71.22472 L263.452278,71.22472 L263.452278,71.22472 Z M302.711123,71.22472 L302.711123,65.680992 L302.553974,65.680992 C299.75338,70.0321 295.788029,72.207647 290.658049,72.207647 C286.705843,72.207647 283.591196,71.132993 281.314111,68.983648 C279.037026,66.808088 277.898422,63.898603 277.898422,60.255219 C277.898422,52.44418 282.282551,48.001346 291.050689,46.926642 L302.789578,45.314636 C302.789578,39.8364586 300.25074,37.0973823 295.173063,37.0973318 C290.330864,37.0973823 285.881419,38.5914216 281.824481,41.5795129 L281.824481,33.5587811 C283.342579,32.641416 285.514938,31.8157521 288.341676,31.0817767 C291.194574,30.3479023 293.785842,29.9809461 296.115227,29.9808956 C306.480033,29.9809461 311.662317,35.2232542 311.662443,45.70782 L311.662443,71.22472 L302.710997,71.22472 L302.711123,71.22472 Z M294.113027,52.784921 C291.417039,53.125688 289.519571,53.794089 288.420257,54.790098 C287.347091,55.75993 286.810571,57.267102 286.810571,59.311601 C286.810571,60.989131 287.425667,62.365255 288.655862,63.439921 C289.885934,64.48836 291.49562,65.012604 293.484795,65.012604 C296.180669,65.012604 298.405449,64.082081 300.159146,62.221073 C301.912729,60.360053 302.789578,58.040349 302.789578,55.261913 L302.789578,51.644718 L294.113027,52.784921 L294.113027,52.784921 Z M342.041424,39.8102186 C340.549596,38.8928409 338.795899,38.4341583 336.78056,38.4341331 C334.163153,38.4341583 332.030081,39.5612541 330.381104,41.8154078 C328.758404,44.069625 327.946985,47.005324 327.946985,50.622481 L327.946985,71.22472 L318.877819,71.22472 L318.877819,30.9638481 L327.946985,30.9638481 L327.946985,38.7879692 L328.104147,38.7879692 C330.040893,33.1001238 333.469731,30.2561759 338.390372,30.2561254 C339.98692,30.2561759 341.203979,30.4396161 342.04155,30.8065848 L342.04155,39.8102186 L342.041424,39.8102186 Z M351.069811,21.9602017 C349.525554,21.960227 348.216914,21.4622223 347.143739,20.4661245 C346.070703,19.4439509 345.534179,18.1988761 345.534179,16.7309884 C345.534179,15.2107722 346.070703,13.9395079 347.143739,12.9172332 C348.216914,11.8950091 349.525554,11.383897 351.069811,11.3838339 C352.640207,11.383897 353.961987,11.9081417 355.035149,12.9565427 C356.108198,13.97883 356.644836,15.236987 356.644836,16.7309884 C356.644836,18.1988761 356.108198,19.4439509 355.035149,20.4661245 C353.961987,21.4622223 352.640207,21.960227 351.069811,21.9602017 Z M346.437065,71.22472 L346.437065,30.9638481 L355.506231,30.9638481 L355.506231,71.22472 L346.437065,71.22472 Z M389.782371,71.22472 L389.782371,48.617292 C389.782371,41.1470451 387.099523,37.4118963 381.734064,37.4118584 C379.038077,37.4118963 376.77412,38.4472531 374.941968,40.5179413 C373.135968,42.5624654 372.232968,45.170518 372.232968,48.342062 L372.232968,71.22472 L363.163789,71.22472 L363.163789,30.9638481 L372.232968,30.9638481 L372.232968,37.4118584 L372.390117,37.4118584 C375.321596,32.4579253 379.666308,29.9809461 385.42452,29.9808956 C394.375953,29.9809461 398.85155,35.4853387 398.851676,46.494174 L398.851676,71.22472 L389.782497,71.22472 L389.782371,71.22472 Z M29.4311121,0 C26.6763107,0.0058575 23.9796704,1.5737917 22.5928855,3.965729 L1.0238921,41.5342563 C-0.3412974,43.9325978 -0.3412974,47.067402 1.0238921,49.465744 L22.5928855,87.034271 C23.9798162,89.426228 26.6763107,90.994582 29.4311121,91 L72.568946,91 C75.323748,90.994143 78.020241,89.426228 79.407172,87.034271 L100.976161,49.465744 C102.34135,47.067402 102.341209,43.9325978 100.976161,41.5342563 L79.407172,3.965729 C78.020241,1.5737917 75.323748,0.0054182 72.568946,0 L29.4311121,0 Z M29.8225901,21.9780432 C29.8818491,21.9721857 29.9440029,21.9721857 30.0034464,21.9780432 L37.444074,21.9780432 C37.773437,21.9848769 38.0929203,22.1757336 38.2573978,22.4623994 L50.8795281,45.015639 C50.9430615,45.127146 50.9839987,45.251384 50.9995323,45.378901 C51.0150756,45.251354 51.055974,45.127107 51.1195365,45.015639 L63.711456,22.4623994 C63.881153,22.167045 64.215602,21.975134 64.554853,21.9780432 L71.995483,21.9780432 C72.654359,21.9839007 73.147775,22.8160066 72.839019,23.4008677 L60.518299,45.500005 L72.839019,67.568869 C73.176999,68.157088 72.671442,69.027775 71.995483,69.021957 L64.554853,69.021957 C64.209673,69.019028 63.873247,68.81384 63.711456,68.507327 L51.1195365,45.954088 C51.0560031,45.84258 51.0150659,45.718333 50.9995323,45.590825 C50.983989,45.718363 50.9430906,45.842629 50.8795281,45.954088 L38.2573978,68.507327 C38.1004103,68.805171 37.7792269,69.008397 37.444074,69.021957 L30.0034464,69.021957 C29.3274867,69.027814 28.8220664,68.157088 29.1600463,67.568869 L41.4807624,45.500005 L29.1600463,23.4008677 C28.8647037,22.86725 29.2250368,22.0919422 29.8225901,21.9780432 L29.8225901,21.9780432 Z" id="Logo"></path>
        </g>
    </g>
</svg>