<?xml version="1.0" encoding="iso-8859-1"?>
<!-- Generator: Adobe Illustrator 19.0.0, SVG Export Plug-In . SVG Version: 6.00 Build 0)  -->
<svg version="1.1" id="Capa_1" xmlns="http://www.w3.org/2000/svg" xmlns:xlink="http://www.w3.org/1999/xlink" x="0px" y="0px"
	 viewBox="0 0 512 512" style="enable-background:new 0 0 512 512;" xml:space="preserve">
<g>
	<g>
		<path d="M446.676,280.322c-4.143,0-7.5,3.358-7.5,7.5v0.921c0,4.142,3.358,7.5,7.5,7.5c4.143,0,7.5-3.358,7.5-7.5v-0.921
			C454.176,283.68,450.819,280.322,446.676,280.322z"/>
	</g>
</g>
<g>
	<g>
		<path d="M125.083,73.638c-4.143,0-7.5,3.358-7.5,7.5v0.921c0,4.142,3.357,7.5,7.5,7.5c4.143,0,7.5-3.358,7.5-7.5v-0.921
			C132.583,76.996,129.226,73.638,125.083,73.638z"/>
	</g>
</g>
<g>
	<g>
		<path d="M56.027,193.861c-4.143,0-7.5,3.358-7.5,7.5v0.921c0,4.142,3.357,7.5,7.5,7.5c4.143,0,7.5-3.358,7.5-7.5v-0.921
			C63.527,197.219,60.169,193.861,56.027,193.861z"/>
	</g>
</g>
<g>
	<g>
		<path d="M498.457,155.879c4.143,0,7.5-3.358,7.5-7.5V32.171c0-6.97-4.469-13.034-11.119-15.089
			c-11.162-3.45-34.149-9.823-62.695-13.746c-0.056-0.008-0.112-0.014-0.169-0.021c-0.001,0-0.002,0-0.004,0
			c-9.869-1.356-19.661-2.306-29.099-2.819c-50.806-2.817-92.583,6.36-124.191,27.268c-15.559,10.289-30.581,17.207-45.923,21.149
			c-4.012,1.031-6.429,5.119-5.397,9.131c1.03,4.011,5.122,6.426,9.13,5.397c16.985-4.365,33.492-11.942,50.465-23.167
			c28.859-19.09,67.584-27.433,115.095-24.802c1.066,0.058,2.152,0.141,3.227,0.211c-32.208,16.554-69.087,35.03-115.988,57.151
			c-135.914,64.117-220.533,38.829-268.247,5.042v-27.29c0-0.221,0.079-0.41,0.234-0.563c0.163-0.162,0.415-0.238,0.605-0.238
			c43.331,0.637,77.784,6.125,108.181,10.967c27.089,4.316,50.479,8.042,73.564,7.28c4.14-0.137,7.385-3.604,7.248-7.744
			c-0.137-4.14-3.595-7.369-7.744-7.249c-21.644,0.718-44.382-2.907-70.708-7.101c-30.896-4.922-65.913-10.5-110.317-11.152
			c-4.326-0.076-8.312,1.551-11.355,4.55c-3.036,2.991-4.708,6.986-4.708,11.25V481.91c0,16.592,13.498,30.09,30.09,30.09h53.249
			c4.143,0,7.5-3.358,7.5-7.5c0-4.142-3.357-7.5-7.5-7.5H36.132c-8.32,0-15.09-6.769-15.09-15.09V350.382h45.276l-21.228,18.964
			c-4.544,4.058-6.076,10.358-3.904,16.05c2.172,5.692,7.512,9.37,13.604,9.37c0,0,257.34,0.004,257.369,0.004
			c0.026,0,0.052-0.004,0.077-0.004h147.504c6.226,0,11.605-3.787,13.706-9.647c2.102-5.86,0.352-12.203-4.456-16.158
			l-22.585-18.579h44.55V481.91c0,8.321-6.77,15.09-15.09,15.09H120.622c-4.143,0-7.5,3.358-7.5,7.5c0,4.142,3.357,7.5,7.5,7.5
			h355.244c16.592,0,30.09-13.498,30.09-30.09V179.625c0-4.142-3.357-7.5-7.5-7.5c-4.143,0-7.5,3.358-7.5,7.5v45.589
			c-60.598,7.694-123.153,24.397-186.045,49.69c-26.698,10.734-53.251,19.443-78.994,25.92l-34.765-30.076
			c-11.7-10.121-28.874-9.608-39.945,1.193l-31.28,30.506l-0.553,0.54l-13.991,12.499c-29.457-0.57-57.788-4.448-84.338-11.565
			v-65.113c30.846,14.217,63.744,21.348,98.519,21.348c36.914,0,75.936-8.015,116.802-24.044
			c53.836-21.116,110.322-55.821,172.685-106.098c23.304-18.781,50.824-34.942,81.909-48.149v66.516
			C490.957,152.521,494.315,155.879,498.457,155.879z M21.042,95.919c27.66,17.479,65.212,31.584,114.413,31.584
			c43.788,0,96.807-11.181,160.232-41.103c57.251-27.002,99.614-48.589,136.759-67.873c18.411,2.647,34.26,6.302,45.703,9.365
			c-10.988,5.52-23.174,11.87-37.45,19.311c-35.058,18.271-83.072,43.293-151.411,75.524
			c-135.906,64.119-220.528,38.836-268.247,5.052V95.919z M458.513,379.765l-143.441-0.001l-29.456-26.98l58.886-51.13
			c5.44-4.723,13.64-4.717,19.074,0.012c0.053,0.046,0.105,0.091,0.159,0.135l56.924,46.825c0.033,0.028,0.066,0.055,0.099,0.082
			L458.513,379.765z M310.506,288.82c61.051-24.553,121.708-40.827,180.448-48.465v88.497v6.53h-62.785l-54.832-45.104
			c-11.044-9.535-27.647-9.519-38.669,0.052l-60.33,52.384l-12.496-10.81c-0.028-0.023-0.054-0.048-0.082-0.071l-22.086-19.106
			C262.891,306.425,286.651,298.41,310.506,288.82z M161.676,282.678c5.449-5.315,13.902-5.568,19.659-0.587l65.551,56.708
			c-1.975,1.488-4.628,2.562-7.717,3.059c-7.588,1.219-18.692-1.002-27.09-10.902c-8.158-9.613-12.602-14.386-18.084-16.615
			c-6.283-2.556-11.989-0.954-19.887,1.261c-4.979,1.397-11.175,3.136-20.05,4.799c-7.168,1.346-15.733,1.225-20.399-10.401
			L161.676,282.678z M122.175,320.595c6.988,12.206,19.145,17.459,34.649,14.549c9.524-1.785,16.353-3.701,21.338-5.1
			c5.848-1.641,8.725-2.403,10.183-1.809c2.475,1.006,7.034,6.223,12.297,12.425c8.914,10.507,21.704,16.515,34.518,16.515
			c2.136,0,4.271-0.167,6.391-0.508c6.722-1.08,12.542-3.905,16.779-7.969l11.11,9.611c0.002,0.002,0.004,0.003,0.005,0.004
			l23.42,21.451H55.943L122.175,320.595z M89.272,329.875l-6.164,5.507H21.041v-15.968C42.81,324.969,65.657,328.477,89.272,329.875
			z M490.956,65.614c-34.764,14.175-65.475,31.891-91.321,52.72C250.755,238.359,123.411,273.274,21.041,222.183v-76.364
			c27.66,17.475,65.214,31.578,114.408,31.578c43.792,0,96.806-11.18,160.237-41.106c68.607-32.356,116.774-57.459,151.944-75.789
			c16.923-8.82,30.891-16.098,43.325-22.234V65.614z"/>
	</g>
</g>
<g>
	<g>
		<path d="M453.103,416.409H191.054c-4.143,0-7.5,3.358-7.5,7.5c0,4.142,3.357,7.5,7.5,7.5h262.049c4.143,0,7.5-3.358,7.5-7.5
			C460.603,419.767,457.246,416.409,453.103,416.409z"/>
	</g>
</g>
<g>
	<g>
		<path d="M169.075,442.959h-28.281c-4.143,0-7.5,3.358-7.5,7.5c0,4.142,3.357,7.5,7.5,7.5h28.281c4.143,0,7.5-3.358,7.5-7.5
			C176.575,446.317,173.218,442.959,169.075,442.959z"/>
	</g>
</g>
<g>
	<g>
		<path d="M73.82,421.512H60.425c-4.143,0-7.5,3.358-7.5,7.5c0,4.142,3.357,7.5,7.5,7.5H73.82c4.143,0,7.5-3.358,7.5-7.5
			C81.32,424.87,77.963,421.512,73.82,421.512z"/>
	</g>
</g>
<g>
</g>
<g>
</g>
<g>
</g>
<g>
</g>
<g>
</g>
<g>
</g>
<g>
</g>
<g>
</g>
<g>
</g>
<g>
</g>
<g>
</g>
<g>
</g>
<g>
</g>
<g>
</g>
<g>
</g>
</svg>
