<svg fill="#000000" xmlns="http://www.w3.org/2000/svg" viewBox="0 0 30 30" width="60px" height="60px"><path d="M 6 3 C 5 3 4.3084584 3.6977997 3.8476562 4.4082031 C 3.3868542 5.1186065 3.0608184 5.9659144 2.7949219 6.8300781 C 2.5290253 7.6942419 2.3341577 8.5715345 2.203125 9.3085938 C 2.0720923 10.045653 2 10.583333 2 11 A 1.0001 1.0001 0 0 0 3.3105469 11.951172 C 3.3105469 11.951172 4.0599723 11.706537 4.9199219 11.462891 C 5.7688161 11.222376 6.8408314 11.009439 6.9804688 11.003906 C 6.8834562 16.735319 6.0295892 16.259904 6.0039062 19.855469 C 6.0005265 19.842954 5.9726563 19.763672 5.9726562 19.763672 A 1.0007249 1.0007249 0 1 0 4.0273438 20.234375 C 4.0273438 20.234375 4.310683 21.42423 5.1855469 22.597656 C 6.0604107 23.771082 7.6523935 25 10 25 C 10.469713 25 10.913729 24.883805 11.365234 24.796875 C 11.659117 25.318018 12.698877 27 15 27 C 17.301123 27 18.340883 25.318018 18.634766 24.796875 C 19.086271 24.883805 19.530287 25 20 25 C 22.347607 25 23.939589 23.771082 24.814453 22.597656 C 25.689317 21.42423 25.972656 20.234375 25.972656 20.234375 A 1.0007247 1.0007247 0 1 0 24.027344 19.763672 C 24.027344 19.763672 23.999473 19.842954 23.996094 19.855469 C 23.970411 16.259904 23.116544 16.735319 23.019531 11.003906 C 23.159169 11.009439 24.231184 11.222376 25.080078 11.462891 C 25.940028 11.706537 26.689453 11.951172 26.689453 11.951172 A 1.0001 1.0001 0 0 0 28 11 C 28 10.583333 27.927908 10.045653 27.796875 9.3085938 C 27.665842 8.5715345 27.470975 7.6942419 27.205078 6.8300781 C 26.939182 5.9659144 26.613146 5.1186065 26.152344 4.4082031 C 25.691542 3.6977997 25 3 24 3 C 23.583333 3 23.201632 3.1270411 22.939453 3.2480469 C 22.677274 3.3690527 22.502373 3.4728788 22.253906 3.5722656 C 21.756972 3.7710393 20.916667 4 19 4 A 1.0001 1.0001 0 0 0 18.912109 4.0039062 C 17.691403 3.3672248 16.327589 3 15 3 C 13.672411 3 12.308597 3.3672248 11.087891 4.0039062 A 1.0001 1.0001 0 0 0 11 4 C 9.0833333 4 8.243028 3.7710393 7.7460938 3.5722656 C 7.4976266 3.4728788 7.3227261 3.3690527 7.0605469 3.2480469 C 6.7983676 3.1270411 6.4166667 3 6 3 z M 6.4003906 6.3046875 C 6.7229609 6.3403467 7.116684 6.6764876 7.6210938 7.4140625 C 7.3747123 7.9152233 7.1965708 8.4465569 7.0976562 9.0039062 A 1.0001 1.0001 0 0 0 7 9 C 6.1752669 9 5.2798005 9.2807557 4.375 9.5371094 C 4.2743923 9.5656142 4.2841308 9.5656214 4.1875 9.59375 C 4.2075206 9.4831459 4.2387126 9.3549652 4.2617188 9.2382812 C 5.1376418 8.1288931 5.5309582 6.2085743 6.4003906 6.3046875 z M 23.599609 6.3046875 C 24.469042 6.2085743 24.862358 8.1288931 25.738281 9.2382812 C 25.761287 9.3549652 25.792479 9.4831459 25.8125 9.59375 C 25.715869 9.5656214 25.725608 9.5656142 25.625 9.5371094 C 24.7202 9.2807557 23.824733 9 23 9 A 1.0001 1.0001 0 0 0 22.902344 9.0039062 C 22.803429 8.4465569 22.625288 7.9152233 22.378906 7.4140625 C 22.883316 6.6764876 23.277039 6.3403467 23.599609 6.3046875 z M 15 7 C 16.105 7 17 7.895 17 9 L 17 13 C 17 15.819 22 14 22 20 C 22 20.552 22.448 21 23 21 C 23.234542 21 23.440725 20.906856 23.611328 20.771484 C 23.503084 20.971768 23.372528 21.185608 23.210938 21.402344 C 22.594301 22.229418 21.686393 23 20 23 C 18.952705 23 17.872173 22.652304 17.119141 22.140625 C 16.366109 21.628946 16 21.024224 16 20.5 L 16 19.722656 C 16.595634 19.376387 17 18.738946 17 18 L 15.167969 18 A 1.0001 1.0001 0 0 0 15.083984 17.990234 A 1.0001 1.0001 0 0 0 14.984375 17.986328 A 1.0001 1.0001 0 0 0 14.884766 17.992188 A 1.0001 1.0001 0 0 0 14.835938 18 L 13 18 C 13 18.738946 13.404366 19.376387 14 19.722656 L 14 20.5 C 14 21.024224 13.633891 21.628946 12.880859 22.140625 C 12.127827 22.652304 11.047295 23 10 23 C 8.3136065 23 7.4056986 22.229418 6.7890625 21.402344 C 6.6274724 21.185608 6.4969157 20.971768 6.3886719 20.771484 C 6.5592746 20.906856 6.7654582 21 7 21 C 7.552 21 8 20.552 8 20 C 8 14 13 15.819 13 13 L 13 9 C 13 7.895 13.895 7 15 7 z M 10 12 C 10.552 12 11 12.448 11 13 C 11 13.552 10.552 14 10 14 C 9.448 14 9 13.552 9 13 C 9 12.448 9.448 12 10 12 z M 20 12 C 20.552 12 21 12.448 21 13 C 21 13.552 20.552 14 20 14 C 19.448 14 19 13.552 19 13 C 19 12.448 19.448 12 20 12 z M 15 22.802734 C 15.305601 23.15853 15.601452 23.528093 15.994141 23.794922 C 16.197562 23.933145 16.453957 24.000567 16.675781 24.117188 C 16.328159 24.537464 15.814406 25 15 25 C 14.185594 25 13.671841 24.537464 13.324219 24.117188 C 13.546043 24.000567 13.802438 23.933145 14.005859 23.794922 C 14.398548 23.528093 14.694399 23.15853 15 22.802734 z"/></svg>