<svg fill="#000000" xmlns="http://www.w3.org/2000/svg" viewBox="0 0 30 30" width="60px" height="60px"><path d="M 7.4570312 0.005859375 C 7.0865137 0.052236328 6.7575781 0.38921875 6.8613281 0.83984375 C 7.5833281 3.9808438 6 4.8572344 6 8.3652344 C 6 10.22034 6.6837095 11.88516 7.6484375 13.265625 C 7.4644748 13.627785 7.3001567 14.015084 7.1875 14.458984 L 5 13 C 5 13 5.0065949 15.456041 6.453125 17 L 3 17 C 3 17 3.7101165 19.093292 6.8671875 19.779297 L 5 21.646484 C 5 21.646484 7.2245437 22.752208 9.7011719 21.03125 C 10.010341 21.255257 10.304282 21.467334 10.570312 21.654297 C 10.250964 22.270299 10 22.948085 10 24 C 10 26 12.636 29 15 29 C 17.364 29 20 26 20 24 C 20 22.948085 19.749036 22.270299 19.429688 21.654297 C 19.695718 21.467334 19.989659 21.255257 20.298828 21.03125 C 22.775456 22.752208 25 21.646484 25 21.646484 L 23.132812 19.779297 C 26.289884 19.093292 27 17 27 17 L 23.546875 17 C 24.993405 15.456041 25 13 25 13 L 22.8125 14.458984 C 22.699843 14.015084 22.535525 13.627785 22.351562 13.265625 C 23.31629 11.88516 24 10.22034 24 8.3652344 C 24 4.8572344 22.416672 3.9817969 23.138672 0.84179688 C 23.304672 0.12079688 22.361062 -0.31360937 21.914062 0.27539062 C 18.570007 4.678958 23.103283 8.004184 16.529297 8.9804688 L 15.607422 2.5273438 C 15.506422 1.8243437 14.493578 1.8243438 14.392578 2.5273438 L 13.470703 8.9804688 C 6.8967168 8.0034757 11.429993 4.6798931 8.0859375 0.27539062 C 7.9183125 0.054890625 7.6793418 -0.021966797 7.4570312 0.005859375 z M 9.1132812 14.972656 C 9.577249 15.419129 10.052953 15.790634 10.523438 16.121094 A 1 1 0 0 0 10.521484 16.123047 A 1 1 0 0 0 11 18 A 1 1 0 0 0 11.992188 17.119141 C 11.978376 18.335292 11.773579 19.1657 11.501953 19.833984 C 11.155478 19.607773 10.819233 19.390745 10.53125 19.167969 C 9.6203764 18.463341 9 17.813899 9 15.929688 C 9 15.578194 9.0467577 15.265137 9.1132812 14.972656 z M 20.886719 14.972656 C 20.953242 15.265137 21 15.578194 21 15.929688 C 21 17.813899 20.379624 18.463341 19.46875 19.167969 C 19.180767 19.390745 18.844522 19.607773 18.498047 19.833984 C 18.227542 19.168458 18.023119 18.340832 18.007812 17.132812 A 1 1 0 0 0 19 18 A 1 1 0 0 0 19.476562 16.121094 C 19.947047 15.790634 20.422751 15.419129 20.886719 14.972656 z M 13 24 C 13.552 24 14 24.448 14 25 L 14 27 C 14 27 12 26 12 25 C 12 24.448 12.448 24 13 24 z M 17 24 C 17.552 24 18 24.448 18 25 C 18 26 16 27 16 27 L 16 25 C 16 24.448 16.448 24 17 24 z"/></svg>