<?xml version="1.0" encoding="iso-8859-1"?>
<!-- Generator: Adobe Illustrator 22.1.0, SVG Export Plug-In . SVG Version: 6.00 Build 0)  -->
<svg xmlns="http://www.w3.org/2000/svg" xmlns:xlink="http://www.w3.org/1999/xlink" version="1.1" id="Layer_1" x="0px" y="0px" viewBox="0 0 48 48" style="enable-background:new 0 0 48 48;" xml:space="preserve">
<path style="fill:#AED581;" d="M11.312,39.464c2.612,2.138,5.768,3.634,9.226,4.238l0.285-4.023  c-2.474-0.496-4.746-1.561-6.668-3.059L11.312,39.464z"/>
<path style="fill:#9CCC65;" d="M8.086,26H4.051c0.4,4.016,2.008,7.674,4.433,10.636l2.84-2.84C9.608,31.584,8.452,28.914,8.086,26z"/>
<path style="fill:#DCEDC8;" d="M33.659,36.679l2.023,3.469c1.626-1.182,3.063-2.609,4.269-4.215l-3.461-2.074  C35.664,34.909,34.719,35.865,33.659,36.679z"/>
<path style="fill:#C5E1A5;" d="M24.812,39.96l-0.285,4.012c2.744-0.078,5.343-0.731,7.703-1.809l-2.019-3.461  C28.538,39.416,26.718,39.856,24.812,39.96z"/>
<path style="fill:#8BC34A;" d="M39.812,22h4.035C42.839,11.908,34.301,4,23.949,4C13.597,4,5.057,11.908,4.051,22h4.035  c0.99-7.88,7.719-14,15.863-14C32.093,8,38.822,14.12,39.812,22z"/>
</svg>
