<?xml version="1.0" encoding="iso-8859-1"?>
<!-- Generator: Adobe Illustrator 21.0.2, SVG Export Plug-In . SVG Version: 6.00 Build 0)  -->
<svg version="1.1" id="Layer_1" xmlns="http://www.w3.org/2000/svg" xmlns:xlink="http://www.w3.org/1999/xlink" x="0px" y="0px"
	 viewBox="0 0 48 48" style="enable-background:new 0 0 48 48;" xml:space="preserve">
<g id="surface1_26_">
	<path style="fill:#BBDEFB;" d="M44,24c0,11.044-8.956,20-20,20S4,35.044,4,24S12.956,4,24,4S44,12.956,44,24z"/>
	<path style="fill:#3F51B5;" d="M24,35c-4.262,0-7.953-2.445-9.777-6H17l-4-5l-4,5h3.02c1.961,4.691,6.586,8,11.98,8
		c6.133,0,11.277-4.277,12.637-10h-2.063C33.262,31.609,29.023,35,24,35z"/>
	<path style="fill:#3F51B5;" d="M24,13c4.262,0,7.953,2.445,9.777,6H31l4,5l4-5h-3.02c-1.961-4.691-6.586-8-11.98-8
		c-6.133,0-11.277,4.277-12.637,10h2.063C14.738,16.391,18.977,13,24,13z"/>
</g>
</svg>
