<svg fill="#000000" xmlns="http://www.w3.org/2000/svg" viewBox="0 0 30 30" width="60px" height="60px"><path d="M 15 2 C 11.211953 2 6.745245 5.0285 5.4082031 10.570312 C 4.8893392 10.25169 4.2404237 10 3.4453125 10 C 1.6056059 10 0 11.667621 0 14 C 0 15.3905 0.69974326 16.74108 1.5957031 17.871094 C 2.3981317 18.883143 3.3467371 19.784578 4.5644531 19.962891 C 6.0165807 23.816725 10.13616 27 15 27 C 19.86384 27 23.983419 23.816725 25.435547 19.962891 C 26.653263 19.784578 27.601868 18.883143 28.404297 17.871094 C 29.300257 16.74108 30 15.3905 30 14 C 30 11.667621 28.394394 10 26.554688 10 C 25.759576 10 25.110661 10.25169 24.591797 10.570312 C 23.254755 5.0285 18.788047 2 15 2 z M 12 11 C 13.202 11 14.267 11.406156 15 12.035156 C 15.733 11.406156 16.798 11 18 11 C 20.209 11 22 12.343 22 14 C 22 14.681 21.686734 15.301688 21.177734 15.804688 C 22.316734 16.660688 23 17.754219 23 18.949219 C 23 21.683219 19.418 25 15 25 C 10.582 25 7 21.683219 7 18.949219 C 7 17.754219 7.6832656 16.660688 8.8222656 15.804688 C 8.3132656 15.301688 8 14.681 8 14 C 8 12.343 9.791 11 12 11 z M 3.4453125 12 C 4.2897919 12 4.8514428 12.630213 5.0488281 12.888672 C 5.0228929 13.252686 5 13.619129 5 14 C 5 14.901 4 15.123 4 17 C 4 17.153845 4.018266 17.307373 4.0273438 17.460938 C 3.7391608 17.240437 3.4349246 16.97299 3.1621094 16.628906 C 2.4723193 15.75892 2 14.6095 2 14 C 2 12.466379 2.7110191 12 3.4453125 12 z M 26.554688 12 C 27.288981 12 28 12.466379 28 14 C 28 14.6095 27.527681 15.75892 26.837891 16.628906 C 26.565075 16.97299 26.260839 17.240437 25.972656 17.460938 C 25.981734 17.307373 26 17.153845 26 17 C 26 15.123 25 14.901 25 14 C 25 13.619129 24.977107 13.252686 24.951172 12.888672 C 25.148557 12.630213 25.710208 12 26.554688 12 z M 12 13 A 1 1 0 0 0 12 15 A 1 1 0 0 0 12 13 z M 18 13 A 1 1 0 0 0 18 15 A 1 1 0 0 0 18 13 z M 14.5 16.5 C 13.672 16.5 13 17.172 13 18 L 16 18 L 17 18 C 17 17.172 16.328 16.5 15.5 16.5 C 15.323878 16.5 15.15704 16.535954 15 16.591797 C 14.84296 16.535954 14.676122 16.5 14.5 16.5 z"/></svg>