<svg fill="#000000" xmlns="http://www.w3.org/2000/svg" viewBox="0 0 30 30" width="60px" height="60px"><path d="M 7.0078125 0 A 1.0001 1.0001 0 0 0 6 1 L 6 5 C 6 8.2757778 7.496095 10.085048 8.6210938 11.212891 C 9.1835931 11.776812 9.6158075 12.207269 9.7929688 12.533203 C 9.961923 12.84404 10.018505 13.056612 9.8203125 13.636719 C 9.3027284 14.702486 9 15.926392 9 17.210938 C 9 17.359938 9.0115312 17.505344 9.0195312 17.652344 C 8.3775313 18.249344 8 19.072938 8 20.210938 C 8 23.033938 10.275844 26.118703 13.339844 26.970703 C 13.921844 27.132703 14.460453 26.593813 14.314453 26.007812 L 14.177734 25.462891 C 13.769734 25.194891 13.5 24.524 13.5 24 C 13.5 24 14.227141 24.466797 14.994141 24.466797 C 15.761141 24.466797 16.5 24 16.5 24 C 16.5 24.524 16.229266 25.194891 15.822266 25.462891 L 15.6875 26.007812 C 15.5405 26.593812 16.078156 27.132703 16.660156 26.970703 C 19.724156 26.117703 22.001953 23.032938 22.001953 20.210938 C 22.000953 19.072937 21.622469 18.249344 20.980469 17.652344 C 20.988469 17.505344 21 17.360937 21 17.210938 C 21 15.960639 20.714917 14.766348 20.222656 13.720703 C 19.979511 13.013998 20.069362 12.613995 20.326172 12.185547 C 20.590445 11.74465 21.123608 11.293268 21.78125 10.900391 L 20.755859 9.1835938 C 19.950502 9.6647165 19.141852 10.26985 18.609375 11.158203 C 18.565293 11.231748 18.540786 11.318865 18.501953 11.396484 C 18.34309 11.256452 18.177808 11.127116 18.007812 11.005859 C 18.191951 9.3046158 18.973301 7.5927452 19.925781 6.1132812 C 19.965793 6.0511178 20.051831 6 20.15625 6 L 21.390625 6 C 22.335746 7.5027967 23.496269 9.6770857 24 12 C 24.212 12.977 26 13.954 26 11 C 26 4.941 25.252 4 23 4 L 20 4 C 20 4 20.013393 4.0172339 20.013672 4.0175781 C 19.310905 4.0616524 18.642959 4.4125403 18.244141 5.03125 C 17.294884 6.5057048 16.44414 8.2389114 16.111328 10.132812 C 15.750645 10.048988 15.380337 10 15 10 C 14.617038 10 14.243873 10.047857 13.880859 10.132812 C 12.919941 4.5730451 7.6503906 0.24023438 7.6503906 0.24023438 A 1.0001 1.0001 0 0 0 7.0078125 0 z M 8 3.5683594 C 9.5518237 5.2381306 11.648042 7.8224954 11.988281 11.005859 C 11.80441 11.13716 11.627813 11.280392 11.457031 11.433594 C 11.055933 10.765217 10.525938 10.290846 10.037109 9.8007812 C 8.9868584 8.7478745 8 7.7242222 8 5 L 8 3.5683594 z M 11 17 C 11.552 17 12 17.448 12 18 C 12 18.552 11.552 19 11 19 C 10.448 19 10 18.552 10 18 C 10 17.448 10.448 17 11 17 z M 19 17 C 19.552 17 20 17.448 20 18 C 20 18.552 19.552 19 19 19 C 18.448 19 18 18.552 18 18 C 18 17.448 18.448 17 19 17 z"/></svg>