<svg fill="#000000" xmlns="http://www.w3.org/2000/svg" viewBox="0 0 30 30" width="60px" height="60px"><path d="M 8 2 C 6.455 2 6.0282969 5.1210938 6.0292969 6.1210938 C 6.0292969 9.4018116 8.0371905 10.937956 9.9921875 11.605469 L 4.3652344 16.226562 A 1.0001 1.0001 0 0 0 4.1523438 17.53125 C 4.1523438 17.53125 4.6203578 18.244017 5.5546875 18.841797 C 6.1127099 19.198817 6.9264167 19.494112 7.8730469 19.712891 L 6.2929688 21.292969 A 1.0001 1.0001 0 0 0 6.3339844 22.746094 C 7.7347677 23.994322 9.3619797 24.052619 10.527344 23.761719 L 10.029297 25.757812 A 1.0001 1.0001 0 0 0 11 27 C 12.523095 27 13.712322 26.389527 14.539062 25.779297 L 15.050781 27.316406 A 1.0001 1.0001 0 0 0 16.197266 27.980469 C 16.197266 27.980469 18.402653 27.542378 19.378906 25.417969 A 1.0006525 1.0006525 0 1 0 17.560547 24.582031 C 17.317312 25.11133 16.935594 25.401536 16.59375 25.619141 L 15.949219 23.683594 A 1.0001 1.0001 0 0 0 14.216797 23.378906 C 14.216797 23.378906 13.429846 24.028244 12.404297 24.505859 L 12.970703 22.242188 A 1.0001 1.0001 0 0 0 11.375 21.220703 C 11.375 21.220703 10.858599 21.624105 10.121094 21.828125 C 9.6634603 21.954722 9.1693944 21.929046 8.6503906 21.763672 L 10.707031 19.707031 A 1.0001 1.0001 0 0 0 10 18 C 8.3038726 18 7.2614828 17.560423 6.6328125 17.158203 C 6.5361965 17.096393 6.5872024 17.108443 6.5117188 17.052734 L 12.853516 11.841797 A 1.0001 1.0001 0 0 0 12.894531 11.804688 C 14.10895 10.866546 16.157797 9 18 9 C 21 9 22 11 22 11 C 22 11 23 9.459 23 8 C 23 4.642 20.522188 3 19.492188 3 C 18.646187 3 19.365406 4.765625 18.691406 4.765625 C 18.147406 4.765625 17.528422 3 16.232422 3 C 15.198422 3 16.523187 5.015625 14.992188 5.015625 C 14.479188 5.015625 14.163297 3 12.654297 3 C 11.475297 3 12.596187 6.4121094 11.367188 6.4121094 C 10.673187 6.4121094 10.412 2 8 2 z M 22 11 L 19 17 C 19 17 18 19 18 20.5 C 18 21.881 19.119 23 20.5 23 C 21.881 23 23 21.881 23 20.5 C 23 19.743 22.160422 17.709 21.857422 17 L 25 17 C 24 15 22 14 22 14 L 26 14 C 25 11 22 11 22 11 z M 18 11 A 1 1 0 0 0 18 13 A 1 1 0 0 0 18 11 z"/></svg>