<?xml version="1.0" encoding="UTF-8"?>
<svg xmlns="http://www.w3.org/2000/svg" xmlns:xlink="http://www.w3.org/1999/xlink" viewBox="0 0 64 64" version="1.1" width="50px" height="50px">
<g id="surface1">
<path style=" " d="M 32 0 C 31.445313 0 31 0.449219 31 1 L 31 7 C 31 7.550781 31.445313 8 32 8 C 32.554688 8 33 7.550781 33 7 L 33 1 C 33 0.449219 32.554688 0 32 0 Z M 21.152344 4.113281 C 21.023438 4.109375 20.890625 4.132813 20.761719 4.1875 C 20.25 4.390625 20.003906 4.972656 20.210938 5.484375 L 21.707031 9.195313 C 21.863281 9.585938 22.238281 9.820313 22.636719 9.820313 C 22.761719 9.820313 22.886719 9.796875 23.011719 9.75 C 23.523438 9.542969 23.769531 8.957031 23.5625 8.445313 L 22.0625 4.738281 C 21.910156 4.355469 21.542969 4.121094 21.152344 4.113281 Z M 42.847656 4.113281 C 42.457031 4.121094 42.089844 4.355469 41.9375 4.738281 L 40.4375 8.445313 C 40.230469 8.957031 40.480469 9.542969 40.988281 9.75 C 41.113281 9.796875 41.238281 9.820313 41.363281 9.820313 C 41.761719 9.820313 42.136719 9.585938 42.292969 9.195313 L 43.789063 5.484375 C 43.996094 4.972656 43.75 4.390625 43.238281 4.1875 C 43.109375 4.132813 42.976563 4.109375 42.847656 4.113281 Z M 10.078125 9.078125 C 9.824219 9.078125 9.570313 9.175781 9.375 9.371094 C 8.980469 9.761719 8.980469 10.394531 9.375 10.785156 L 13.613281 15.03125 C 13.808594 15.222656 14.066406 15.324219 14.324219 15.324219 C 14.578125 15.324219 14.835938 15.222656 15.03125 15.03125 C 15.421875 14.636719 15.421875 14.007813 15.03125 13.613281 L 10.785156 9.371094 C 10.589844 9.175781 10.335938 9.078125 10.078125 9.078125 Z M 53.921875 9.078125 C 53.664063 9.078125 53.410156 9.175781 53.214844 9.371094 L 48.96875 13.613281 C 48.578125 14.007813 48.578125 14.636719 48.96875 15.03125 C 49.164063 15.226563 49.421875 15.324219 49.675781 15.324219 C 49.933594 15.324219 50.191406 15.222656 50.386719 15.03125 L 54.625 10.785156 C 55.019531 10.394531 55.019531 9.761719 54.625 9.371094 C 54.429688 9.175781 54.175781 9.078125 53.921875 9.078125 Z M 32 10 C 19.867188 10 10 19.867188 10 32 C 10 44.132813 19.867188 54 32 54 C 44.132813 54 54 44.132813 54 32 C 54 19.867188 44.132813 10 32 10 Z M 32 12 C 43.027344 12 52 20.972656 52 32 C 52 43.027344 43.027344 52 32 52 C 20.972656 52 12 43.027344 12 32 C 12 20.972656 20.972656 12 32 12 Z M 32 16 C 28.003906 16 24.175781 17.484375 21.222656 20.175781 C 20.816406 20.546875 20.785156 21.179688 21.15625 21.589844 C 21.351563 21.804688 21.625 21.914063 21.894531 21.914063 C 22.136719 21.914063 22.378906 21.828125 22.570313 21.652344 C 25.152344 19.296875 28.503906 18 32 18 C 33.757813 18 35.472656 18.320313 37.09375 18.953125 C 37.605469 19.152344 38.1875 18.902344 38.386719 18.386719 C 38.585938 17.871094 38.332031 17.292969 37.816406 17.09375 C 35.964844 16.367188 34.007813 16 32 16 Z M 41.351563 19.359375 C 41.097656 19.386719 40.851563 19.511719 40.675781 19.722656 C 40.328125 20.152344 40.394531 20.78125 40.824219 21.128906 C 41.359375 21.566406 41.871094 22.046875 42.339844 22.5625 C 42.535156 22.777344 42.808594 22.886719 43.078125 22.886719 C 43.320313 22.886719 43.5625 22.800781 43.753906 22.625 C 44.160156 22.25 44.1875 21.617188 43.816406 21.210938 C 43.277344 20.625 42.695313 20.074219 42.085938 19.578125 C 41.871094 19.402344 41.605469 19.332031 41.351563 19.359375 Z M 5.09375 20.136719 C 4.707031 20.140625 4.339844 20.378906 4.183594 20.761719 C 3.976563 21.273438 4.226563 21.855469 4.734375 22.0625 L 8.445313 23.5625 C 8.566406 23.613281 8.695313 23.636719 8.820313 23.636719 C 9.214844 23.636719 9.589844 23.398438 9.746094 23.011719 C 9.953125 22.496094 9.707031 21.914063 9.195313 21.707031 L 5.484375 20.207031 C 5.359375 20.15625 5.226563 20.132813 5.09375 20.136719 Z M 58.90625 20.136719 C 58.773438 20.132813 58.640625 20.15625 58.515625 20.207031 L 54.804688 21.707031 C 54.292969 21.914063 54.046875 22.496094 54.253906 23.011719 C 54.410156 23.398438 54.785156 23.636719 55.179688 23.636719 C 55.304688 23.636719 55.433594 23.613281 55.554688 23.5625 L 59.265625 22.0625 C 59.777344 21.855469 60.023438 21.273438 59.816406 20.761719 C 59.660156 20.378906 59.292969 20.140625 58.90625 20.136719 Z M 1 31 C 0.445313 31 0 31.449219 0 32 C 0 32.550781 0.445313 33 1 33 L 7 33 C 7.554688 33 8 32.550781 8 32 C 8 31.449219 7.554688 31 7 31 Z M 57 31 C 56.445313 31 56 31.449219 56 32 C 56 32.550781 56.445313 33 57 33 L 63 33 C 63.554688 33 64 32.550781 64 32 C 64 31.449219 63.554688 31 63 31 Z M 20.03125 36.078125 C 19.898438 36.082031 19.769531 36.105469 19.640625 36.15625 L 17.800781 36.9375 C 17.292969 37.15625 17.054688 37.742188 17.269531 38.25 C 17.433594 38.632813 17.800781 38.859375 18.191406 38.859375 C 18.324219 38.859375 18.453125 38.835938 18.582031 38.78125 L 20.421875 38 C 20.933594 37.785156 21.167969 37.199219 20.953125 36.6875 C 20.789063 36.308594 20.417969 36.078125 20.03125 36.078125 Z M 22.808594 40.191406 C 22.550781 40.191406 22.296875 40.289063 22.101563 40.484375 L 20.6875 41.898438 C 20.296875 42.289063 20.296875 42.921875 20.6875 43.3125 C 20.882813 43.507813 21.136719 43.605469 21.394531 43.605469 C 21.652344 43.605469 21.90625 43.507813 22.101563 43.3125 L 23.515625 41.898438 C 23.90625 41.507813 23.90625 40.875 23.515625 40.484375 C 23.320313 40.289063 23.066406 40.191406 22.808594 40.191406 Z M 8.835938 40.363281 C 8.707031 40.363281 8.574219 40.386719 8.445313 40.4375 L 4.734375 41.9375 C 4.222656 42.144531 3.976563 42.726563 4.183594 43.238281 C 4.339844 43.628906 4.714844 43.863281 5.109375 43.863281 C 5.234375 43.863281 5.363281 43.84375 5.484375 43.792969 L 9.195313 42.292969 C 9.707031 42.085938 9.953125 41.503906 9.746094 40.988281 C 9.589844 40.605469 9.226563 40.371094 8.835938 40.363281 Z M 55.167969 40.367188 C 54.777344 40.375 54.410156 40.605469 54.253906 40.988281 C 54.046875 41.503906 54.292969 42.085938 54.804688 42.292969 L 58.515625 43.792969 C 58.636719 43.84375 58.765625 43.863281 58.890625 43.863281 C 59.285156 43.863281 59.660156 43.628906 59.816406 43.238281 C 60.023438 42.726563 59.773438 42.144531 59.265625 41.9375 L 55.554688 40.4375 C 55.425781 40.386719 55.296875 40.363281 55.167969 40.367188 Z M 27.113281 43.054688 C 26.726563 43.0625 26.359375 43.296875 26.203125 43.679688 L 25.453125 45.53125 C 25.246094 46.046875 25.496094 46.628906 26.007813 46.835938 C 26.128906 46.886719 26.253906 46.90625 26.378906 46.90625 C 26.777344 46.90625 27.152344 46.671875 27.308594 46.28125 L 28.058594 44.425781 C 28.261719 43.914063 28.015625 43.332031 27.503906 43.125 C 27.378906 43.074219 27.246094 43.050781 27.113281 43.054688 Z M 36.886719 43.054688 C 36.753906 43.050781 36.625 43.074219 36.496094 43.125 C 35.984375 43.332031 35.738281 43.914063 35.941406 44.425781 L 36.691406 46.28125 C 36.847656 46.671875 37.222656 46.90625 37.621094 46.90625 C 37.746094 46.90625 37.871094 46.886719 37.992188 46.835938 C 38.503906 46.628906 38.753906 46.046875 38.546875 45.53125 L 37.796875 43.679688 C 37.640625 43.296875 37.273438 43.0625 36.886719 43.054688 Z M 32 44 C 31.445313 44 31 44.449219 31 45 L 31 47 C 31 47.550781 31.445313 48 32 48 C 32.554688 48 33 47.550781 33 47 L 33 45 C 33 44.449219 32.554688 44 32 44 Z M 14.324219 48.675781 C 14.066406 48.675781 13.8125 48.773438 13.613281 48.96875 L 9.375 53.214844 C 8.980469 53.605469 8.980469 54.238281 9.375 54.628906 C 9.566406 54.824219 9.824219 54.921875 10.078125 54.921875 C 10.335938 54.921875 10.59375 54.824219 10.785156 54.628906 L 15.03125 50.386719 C 15.421875 49.992188 15.421875 49.363281 15.03125 48.96875 C 14.832031 48.773438 14.578125 48.675781 14.324219 48.675781 Z M 49.675781 48.675781 C 49.421875 48.675781 49.167969 48.773438 48.96875 48.96875 C 48.578125 49.363281 48.578125 49.992188 48.96875 50.386719 L 53.214844 54.628906 C 53.40625 54.824219 53.664063 54.921875 53.921875 54.921875 C 54.175781 54.921875 54.433594 54.824219 54.625 54.628906 C 55.019531 54.238281 55.019531 53.605469 54.625 53.214844 L 50.386719 48.96875 C 50.1875 48.773438 49.933594 48.675781 49.675781 48.675781 Z M 22.621094 54.179688 C 22.230469 54.1875 21.863281 54.421875 21.707031 54.804688 L 20.210938 58.515625 C 20.003906 59.027344 20.25 59.609375 20.761719 59.8125 C 20.882813 59.863281 21.011719 59.890625 21.136719 59.890625 C 21.53125 59.890625 21.90625 59.652344 22.0625 59.261719 L 23.5625 55.554688 C 23.769531 55.042969 23.519531 54.457031 23.011719 54.25 C 22.882813 54.199219 22.75 54.175781 22.621094 54.179688 Z M 41.378906 54.179688 C 41.25 54.175781 41.117188 54.199219 40.988281 54.25 C 40.476563 54.457031 40.230469 55.042969 40.4375 55.554688 L 41.9375 59.261719 C 42.09375 59.652344 42.46875 59.890625 42.863281 59.890625 C 42.988281 59.890625 43.117188 59.863281 43.238281 59.8125 C 43.75 59.609375 43.996094 59.027344 43.789063 58.515625 L 42.292969 54.804688 C 42.136719 54.421875 41.769531 54.1875 41.378906 54.179688 Z M 32 56 C 31.445313 56 31 56.449219 31 57 L 31 63 C 31 63.550781 31.445313 64 32 64 C 32.554688 64 33 63.550781 33 63 L 33 57 C 33 56.449219 32.554688 56 32 56 Z "/>
</g>
</svg>
