<svg fill="#000000" xmlns="http://www.w3.org/2000/svg" viewBox="0 0 30 30" width="60px" height="60px"><path d="M 5.3886719 4 C 4.8830398 4 4.4631796 4.244257 4.1738281 4.5195312 C 3.8844766 4.7948056 3.6819592 5.1172022 3.515625 5.4707031 C 3.1829566 6.1777049 3 7.027922 3 7.9277344 C 3 9.861827 3.989369 11.129453 4.9433594 11.912109 C 4.9390088 11.927825 4.9179688 12 4.9179688 12 C 4.9179688 12 4.494875 12.667719 4.046875 13.886719 L 5.8886719 16.189453 C 6.2076719 16.588453 5.7884531 17.152891 5.3144531 16.962891 L 3.390625 16.191406 C 3.162625 17.279406 3 18.553 3 20 C 3 20 5.6474775 22.614032 10.076172 24.589844 A 1.0001 1.0001 0 0 0 10.162109 25.546875 C 10.162109 25.546875 11.811073 28 15 28 C 18.188927 28 19.837891 25.546875 19.837891 25.546875 A 1.0005666 1.0005666 0 0 0 19.914062 24.59375 C 24.348562 22.617449 27 20 27 20 C 27 18.553 26.837375 17.279406 26.609375 16.191406 L 24.685547 16.962891 C 24.210547 17.152891 23.791328 16.588453 24.111328 16.189453 L 25.953125 13.886719 C 25.505125 12.667719 25.082031 12 25.082031 12 C 25.082031 12 25.060991 11.927825 25.056641 11.912109 C 26.010631 11.129453 27 9.861827 27 7.9277344 C 27 7.0277013 26.817151 6.1775871 26.484375 5.4707031 C 26.317987 5.1172611 26.115353 4.7966746 25.826172 4.5214844 C 25.536991 4.2462941 25.117152 4 24.611328 4 C 24.20058 4 23.877084 4.1435289 23.648438 4.25 C 23.419791 4.3564711 23.23205 4.4532354 22.9375 4.5566406 C 22.367547 4.7567292 21.365904 4.9795355 19.427734 4.9941406 C 18.203561 4.3955544 16.750751 4 15 4 C 13.249249 4 11.796439 4.3955544 10.572266 4.9941406 C 8.6342065 4.9795351 7.634283 4.7567213 7.0644531 4.5566406 C 6.7699666 4.4532394 6.5823075 4.3565139 6.3535156 4.25 C 6.1247238 4.1434861 5.7993586 4 5.3886719 4 z M 15 6 C 18.339 6 20 8 20 8 L 16.144531 8 C 17.178531 8.686 18 10 18 10 L 12 10 C 12 10 12.821469 8.686 13.855469 8 L 10 8 C 10 8 11.661 6 15 6 z M 5.4941406 6.0566406 C 5.5090706 6.0633106 5.4886405 6.05357 5.5078125 6.0625 C 5.6817706 6.143486 5.9828772 6.2967606 6.4003906 6.4433594 C 6.8069886 6.5861252 7.3282722 6.7205885 8.0058594 6.8222656 C 6.9357112 7.8819246 6.2235857 9.0253748 5.7402344 9.9921875 C 5.3298762 9.5138987 5 8.8457808 5 7.9277344 C 5 7.3175467 5.1458872 6.7012638 5.3242188 6.3222656 C 5.3911808 6.1799558 5.4455685 6.1168926 5.4941406 6.0566406 z M 24.503906 6.0566406 C 24.552536 6.1169396 24.60871 6.1797931 24.675781 6.3222656 C 24.854254 6.7013822 25 7.3177675 25 7.9277344 C 25 8.8457808 24.670124 9.5138987 24.259766 9.9921875 C 23.776414 9.0253748 23.064289 7.8819246 21.994141 6.8222656 C 22.671713 6.7205875 23.192951 6.5861216 23.599609 6.4433594 C 24.017185 6.2967646 24.318178 6.1435289 24.492188 6.0625 C 24.509128 6.05461 24.490286 6.0627569 24.503906 6.0566406 z M 8 13 L 10 13 C 10.552 13 11 13.448 11 14 C 11 14.552 10.552 15 10 15 C 8.545 15 8 13 8 13 z M 13 13 L 17 13 C 17 13 16.841 15.821 18 17 C 19.424 17 21 19 21 19 C 21 22 20 22 17 22 L 15.158203 22 A 1.0001 1.0001 0 0 0 16 21 L 16 19.177734 C 16.671664 18.895852 17.431641 18.30112 17.431641 17 C 17.431641 17 16.391 17.296875 15 17.296875 C 13.609 17.296875 12.568359 17 12.568359 17 C 12.568359 18.30112 13.328336 18.895852 14 19.177734 L 14 21 A 1.0001 1.0001 0 0 0 14.832031 22 L 13 22 C 10 22 9 22 9 19 C 9 19 10.576 17 12 17 C 13.159 15.821 13 13 13 13 z M 20 13 L 22 13 C 22 13 21.455 15 20 15 C 19.448 15 19 14.552 19 14 C 19 13.448 19.448 13 20 13 z M 12.730469 23.080078 C 13.18687 23.723643 14.027012 24.160156 15 24.160156 C 15.972988 24.160156 16.81313 23.723643 17.269531 23.080078 L 17.736328 24.947266 C 17.259782 25.39996 16.370043 26 15 26 C 13.629957 26 12.740218 25.39996 12.263672 24.947266 L 12.730469 23.080078 z"/></svg>